<?xml version="1.0" encoding="UTF-8" standalone="no"?>
<!-- Created with Inkscape (http://www.inkscape.org/) -->
<svg
   xmlns:dc="http://purl.org/dc/elements/1.1/"
   xmlns:cc="http://creativecommons.org/ns#"
   xmlns:rdf="http://www.w3.org/1999/02/22-rdf-syntax-ns#"
   xmlns:svg="http://www.w3.org/2000/svg"
   xmlns="http://www.w3.org/2000/svg"
   xmlns:sodipodi="http://sodipodi.sourceforge.net/DTD/sodipodi-0.dtd"
   xmlns:inkscape="http://www.inkscape.org/namespaces/inkscape"
   width="500"
   height="500"
   id="svg2390"
   sodipodi:version="0.32"
   inkscape:version="0.46"
   version="1.0"
   sodipodi:docname="Farmacia1.svg"
   inkscape:output_extension="org.inkscape.output.svg.inkscape">
  <defs
     id="defs2392"><inkscape:perspective
   sodipodi:type="inkscape:persp3d"
   inkscape:vp_x="0 : 526.18109 : 1"
   inkscape:vp_y="0 : 1000 : 0"
   inkscape:vp_z="744.09448 : 526.18109 : 1"
   inkscape:persp3d-origin="372.04724 : 350.78739 : 1"
   id="perspective2398" />

		
	</defs>
  <sodipodi:namedview
     id="base"
     pagecolor="#ffffff"
     bordercolor="#666666"
     borderopacity="1.0"
     gridtolerance="10000"
     guidetolerance="10"
     objecttolerance="10"
     inkscape:pageopacity="0.0"
     inkscape:pageshadow="2"
     inkscape:zoom="1.518"
     inkscape:cx="250"
     inkscape:cy="250"
     inkscape:document-units="px"
     inkscape:current-layer="capa1"
     showgrid="false"
     inkscape:window-width="1201"
     inkscape:window-height="962"
     inkscape:window-x="20"
     inkscape:window-y="42" />
  <metadata
     id="metadata2395">
    <rdf:RDF>
      <cc:Work
         rdf:about="">
        <dc:format>image/svg+xml</dc:format>
        <dc:type
           rdf:resource="http://purl.org/dc/dcmitype/StillImage" />
      </cc:Work>
    </rdf:RDF>
  </metadata>
  <g
     inkscape:label="Capa 1"
     inkscape:groupmode="layer"
     id="capa1">
    <path
       id="path3220"
       style="fill:#009900;fill-opacity:1;stroke:none"
       d="M 346.91473,186.24948 C 348.55162,191.91173 349.43692,198.28708 349.43692,205.49507 C 349.43692,218.23565 346.6453,230.52244 341.64752,241.77807 C 348.98718,236.55139 355.56918,231.18895 361.92834,226.26005 C 384.46594,208.78708 405.73738,202.70952 422.19743,201.69659 C 431.02406,201.15367 445.49473,194.35288 445.49473,186.24948 C 445.49473,186.24948 346.91473,186.24948 346.91473,186.24948 z M 343.69566,205.49507 C 343.69566,160.6731 302.67215,148.51797 266.20682,142.69366 C 229.45381,136.82477 186.94535,123.70129 186.94535,84.450416 C 186.94535,65.204814 198.97486,46.084816 219.61223,46.084816 C 250,46.084816 255.31787,69.128896 255.44549,72.420894 C 255.57312,75.712907 246.60062,78.050742 245.44184,84.576005 C 244.04805,92.426192 247.46769,100.27636 252.40671,106.60716 C 256.81497,112.25928 263.16804,123.70129 269.50085,122.68837 C 276.28139,121.60453 278.74279,110.0268 280.64304,102.42984 C 282.54329,94.832905 285.83328,88.374483 282.66889,81.284007 C 278.74887,72.501927 274.81872,76.851439 271.77994,70.522682 C 270.03973,66.898426 263.30377,30.131243 222.65303,30.131243 C 194.29921,30.131243 168.46148,53.556166 165.92917,80.145476 C 162.30289,118.21326 177.32458,132.5644 208.97853,147.50506 C 258.29586,170.78209 309.51143,169.78943 309.51143,202.45629 C 309.51143,234.36346 298.62451,251.32794 279.88334,263.73831 C 276.65009,265.88166 270.4996,268.69354 264.48079,270.76397 C 264.48079,270.76397 264.48079,293.18205 264.48079,293.18205 C 265.72466,293.00985 266.97664,292.81943 268.2347,292.6067 C 310.26911,285.51623 343.69566,248.03797 343.69566,205.49507 z M 295.1846,186.24948 C 295.1846,186.24948 54.505285,186.24948 54.505285,186.24948 C 54.505285,194.35288 68.975945,201.15367 77.802581,201.69659 C 94.262633,202.70952 115.53407,208.78708 138.07167,226.26005 C 161.08941,244.10578 187.01423,267.5996 241.26453,269.8888 C 241.26453,269.8888 241.26453,338.89135 241.26453,338.89135 C 244.41474,339.47074 247.92755,339.78677 251.77464,339.78677 C 253.38318,339.78677 255.88105,339.68547 258.73953,339.38363 C 258.73953,339.38363 258.73953,299.67085 258.73953,299.67085 L 258.73953,269.8888 C 258.73953,269.8888 258.73953,266.5421 258.73953,266.5421 C 287.84696,260.16471 303.77018,235.31561 303.77018,202.45629 C 303.76611,195.69399 300.99069,190.61113 295.1846,186.24948 z M 241.2625,391.60604 C 246.15696,394.59012 252.17172,395.89679 258.73548,396.78411 C 258.73548,396.78411 258.73548,369.83623 258.73548,369.83623 C 252.89089,370.22926 247.01187,370.15429 241.2625,369.57491 C 241.2625,369.57491 241.2625,391.60604 241.2625,391.60604 z M 299.12692,413.3961 C 289.75735,406.30563 277.60223,404.66063 255.95196,402.00069 C 230.31885,398.85049 223.55453,382.72471 222.79888,365.72376 C 216.14801,363.5176 209.9955,360.44641 204.67967,356.43522 C 203.44998,362.22714 202.89894,368.25202 202.89894,374.39845 C 202.89894,399.97483 230.46674,410.83947 250,413.64933 C 270.25853,416.56251 289.25088,417.32018 291.91083,418.46074 C 294.5971,419.61142 296.21577,420.86745 297.35632,422.13159 C 298.49688,423.39571 301.53362,425.17035 303.43387,423.90419 C 305.33412,422.63805 303.81068,416.94135 299.12692,413.3961 z M 229.99471,334.87813 C 231.63565,333.19465 233.50957,331.72794 235.52124,330.43949 C 235.52124,330.43949 235.52124,314.79586 235.52124,314.79586 C 230.64907,317.54089 226.43934,320.61411 222.82319,324.00742 C 222.82117,328.21713 225.33931,332.04599 229.99471,334.87813 z M 285.70565,327.55063 C 285.70565,339.70574 269.75206,345.53007 251.77262,345.53007 C 233.79319,345.53007 217.07991,338.43958 217.07991,324.00538 C 217.07991,306.19409 224.40337,299.84507 235.52124,296.98659 C 235.52124,296.98659 235.52124,271.97949 235.52124,271.97949 C 211.13606,273.86352 190.99706,296.28971 190.99706,315.39551 C 190.99706,329.32325 193.45848,351.15585 232.02057,362.24334 C 272.53761,373.892 319.13221,348.31562 319.13221,322.73924 C 319.13221,310.33089 312.77912,304.32423 304.44478,301.72101 C 297.52852,299.55944 289.32178,296.47608 264.47877,303.64759 C 264.47877,303.64759 264.47877,319.42898 264.47877,319.42898 C 268.40082,318.34515 271.88933,317.6746 275.32315,317.6746 C 282.41364,317.6746 285.70565,319.95369 285.70565,327.55063 z M 153.26557,469.86876 C 153.26557,469.86876 346.73444,469.86876 346.73444,469.86876 C 346.73444,466.70437 336.47958,462.14621 327.61444,461.3845 C 318.74932,460.62278 306.85554,460.13656 304.19154,457.83925 C 300.52069,454.67486 294.66598,452.4829 286.9718,450.62317 C 279.12162,448.72292 258.73548,447.07792 258.73548,435.93574 C 258.73548,435.93574 258.73548,420.46835 258.73548,420.46835 C 255.53868,420.1503 252.34999,419.78767 249.18155,419.33186 C 246.72622,418.97733 244.05412,418.48505 241.2625,417.83069 C 241.2625,417.83069 241.2625,435.93574 241.2625,435.93574 C 241.2625,447.07792 220.87839,448.72292 213.02618,450.62317 C 205.33199,452.48492 199.47728,454.67486 195.80643,457.83925 C 193.14244,460.13656 181.24462,460.6248 172.38353,461.3845 C 163.52245,462.14419 153.26557,466.70437 153.26557,469.86876 z" />
  </g>
</svg>
